HIERARCHY
ROOT Hips
{
  OFFSET 265.287 66.7526 -254.649
  CHANNELS 6 Xposition Yposition Zposition Zrotation Xrotation Yrotation
  JOINT LeftUpLeg
  {
    OFFSET 8.64259 1.95398 -2.38835
    CHANNELS 3 Zrotation Xrotation Yrotation
    JOINT LeftLeg
    {
      OFFSET 43.7702 0 0
      CHANNELS 3 Zrotation Xrotation Yrotation
      JOINT LeftFoot
      {
        OFFSET 40.6238 0 0
        CHANNELS 3 Zrotation Xrotation Yrotation
        JOINT LeftToeBase
        {
          OFFSET 12.7242 0 0
          CHANNELS 3 Zrotation Xrotation Yrotation
          End Site
          {
            OFFSET 0 0 0
          }
        }
      }
    }
  }
  JOINT RightUpLeg
  {
    OFFSET -8.2249 1.95398 -2.59336
    CHANNELS 3 Zrotation Xrotation Yrotation
    JOINT RightLeg
    {
      OFFSET 43.5653 0 0
      CHANNELS 3 Zrotation Xrotation Yrotation
      JOINT RightFoot
      {
        OFFSET 40.6238 0 0
        CHANNELS 3 Zrotation Xrotation Yrotation
        JOINT RightToeBase
        {
          OFFSET 12.7242 0 0
          CHANNELS 3 Zrotation Xrotation Yrotation
          End Site
          {
            OFFSET 0 0 0
          }
        }
      }
    }
  }
  JOINT Spine
  {
    OFFSET 0.165834 0.87714 6.61349
    CHANNELS 3 Zrotation Xrotation Yrotation
    JOINT Spine1
    {
      OFFSET 7.38963 1.71661e-005 0
      CHANNELS 3 Zrotation Xrotation Yrotation
      JOINT Spine2
      {
        OFFSET 11.9445 1.14441e-005 0
        CHANNELS 3 Zrotation Xrotation Yrotation
        JOINT Spine3
        {
          OFFSET 14.7254 4.19617e-005 0
          CHANNELS 3 Zrotation Xrotation Yrotation
          JOINT Spine4
          {
            OFFSET 10.9679 0 0
            CHANNELS 3 Zrotation Xrotation Yrotation
            JOINT RightShoulder
            {
              OFFSET 2.46616 -1.6653 3.69651
              CHANNELS 3 Zrotation Xrotation Yrotation
              JOINT RightArm
              {
                OFFSET 13.0012 0 0
                CHANNELS 3 Zrotation Xrotation Yrotation
                JOINT RightForeArm
                {
                  OFFSET 28.7848 1.52588e-005 0
                  CHANNELS 3 Zrotation Xrotation Yrotation
                  JOINT RightHand
                  {
                    OFFSET 26.5688 1.52588e-005 0
                    CHANNELS 3 Zrotation Xrotation Yrotation
                    End Site
                    {
                      OFFSET 0 0 0
                    }
                  }
                }
              }
            }
            JOINT LeftShoulder
            {
              OFFSET 2.38034 -1.29275 -3.7523
              CHANNELS 3 Zrotation Xrotation Yrotation
              JOINT LeftArm
              {
                OFFSET 16.3182 6.10351e-005 0
                CHANNELS 3 Zrotation Xrotation Yrotation
                JOINT LeftForeArm
                {
                  OFFSET 27.0901 0 0
                  CHANNELS 3 Zrotation Xrotation Yrotation
                  JOINT LeftHand
                  {
                    OFFSET 24.5451 1.52588e-005 0
                    CHANNELS 3 Zrotation Xrotation Yrotation
                    End Site
                    {
                      OFFSET 0 0 0
                    }
                  }
                }
              }
            }
            JOINT Neck
            {
              OFFSET 5.0226 -0.0266342 0
              CHANNELS 3 Zrotation Xrotation Yrotation
              JOINT Head
              {
                OFFSET 6.69364 2.86102e-005 0
                CHANNELS 3 Zrotation Xrotation Yrotation
                End Site
                {
                  OFFSET 0 0 0
                }
              }
            }
          }
        }
      }
    }
  }
}
MOTION
Frames:	16
Frame Time:	0.0416667
-6.11748 96.823 2.12132 99.5375 -87.0188 99.0628 -173.682 3.11002 91.1867 -12.8321 9.73763 2.65403 65.6255 2.74996 1.64347 29.9206 -0.351324 -0.0319093 175.239 2.57018 87.9999 -12.3386 -3.95279 -0.656673 65.7877 -2.37483 0.405551 29.816 -0.154307 0.0353514 -0.260207 7.14149 -90.1932 12.59 -0.608963 -0.314939 0.919196 -0.62224 -0.287848 -21.6164 -0.486157 -0.483403 -1.6038 -0.486158 -0.483414 101.455 -50.8168 -83.2622 28.4309 -4.28729 -5.8112 -0.0242701 -16.0399 -12.2006 -9.69556 -0.40254 -0.367617 -82.9025 -50.7062 89.2556 -28.9694 11.5326 -17.5042 4.28444 21.5737 -7.06296 2.84387 0.0232745 -1.87206 12.0229 -0.591989 4.04948 -10.3496 -1.41913 -2.43724 
-6.16351 96.8575 2.12932 105.036 -87.1858 104.37 -173.751 2.45027 91.081 -12.0653 8.61452 2.69344 65.6694 2.49354 -0.37918 29.2631 -0.305337 1.42102 175.073 2.20919 87.7975 -12.0613 -4.34199 -0.646846 65.8534 -2.62381 -0.00428891 29.943 -0.232335 0.608501 -0.256174 7.1715 -90.1658 12.5302 -0.587858 -0.263095 0.859382 -0.598863 -0.236981 -21.6763 -0.481611 -0.427611 -1.66369 -0.481603 -0.427608 101.526 -50.9619 -83.1517 28.2916 -5.15917 -5.90245 0.614461 -13.1288 -12.5249 -11.8316 -0.352079 -1.80187 -82.7733 -51.0652 89.4808 -28.5127 11.7047 -16.957 4.20531 20.0063 -7.62302 5.24034 -0.0195693 -3.33864 12.4045 -0.34427 4.54786 -10.937 -1.25337 -3.1684 
-6.17912 96.8461 2.03506 104.6 -87.4451 104.225 -173.542 2.8783 91.3783 -12.6052 8.81267 2.64131 65.676 2.53478 0.134378 29.7174 -0.416741 1.19494 175.222 2.49309 88.1032 -12.2348 -4.57429 -0.572261 65.532 -2.49095 -0.307278 30.0569 -0.272366 0.842333 -0.238434 7.16913 -90.1829 12.5349 -0.560776 -0.300455 0.864048 -0.573457 -0.275487 -21.6715 -0.444553 -0.455099 -1.65885 -0.444556 -0.455104 101.42 -51.22 -83.3113 27.9158 -5.37852 -6.00493 0.643921 -12.7012 -12.8528 -11.456 -0.361147 -1.57696 -82.3003 -51.3291 90.2103 -27.884 12.1295 -17.0388 4.30289 19.9292 -8.46412 4.93926 0.00886317 -2.81744 12.3828 -0.384807 3.93946 -10.7605 -1.21208 -2.14462 
-6.2305 96.828 1.98501 107.769 -87.4825 107.396 -173.463 2.77392 91.4405 -12.6178 8.63944 2.60168 65.9861 2.6549 0.0678626 29.2161 -0.235049 0.910387 175.224 2.20028 88.1144 -11.9282 -4.55877 -0.604232 65.7829 -2.68845 -0.0771863 29.7004 -0.223674 0.84239 -0.226935 7.18178 -90.1951 12.5095 -0.543724 -0.326972 0.83862 -0.557587 -0.30272 -21.6968 -0.420317 -0.475264 -1.68416 -0.420325 -0.475271 101.456 -51.0697 -83.2575 27.8895 -5.35122 -6.05427 0.630041 -12.8917 -12.8196 -11.358 -0.35646 -1.59032 -82.054 -51.769 90.6107 -27.7599 11.8031 -17.0387 4.61029 20.2884 -8.77932 4.51425 -0.0265731 -3.30198 11.9848 -0.283436 4.40224 -10.5804 -1.18612 -2.62163 
-6.24155 96.8293 1.94984 107.974 -87.4533 107.546 -173.519 2.86544 91.3623 -12.7699 8.97096 2.60071 65.6708 2.57958 0.391859 29.638 -0.390479 1.16811 175.043 2.35435 87.99 -12.1427 -4.96398 -0.419282 65.6605 -2.64078 -0.428754 30.0285 -0.248324 0.645747 -0.231584 7.18958 -90.1793 12.494 -0.545403 -0.295306 0.823142 -0.55787 -0.271022 -21.7124 -0.431445 -0.445569 -1.69972 -0.431441 -0.445575 101.419 -51.1477 -83.3138 27.9741 -5.23868 -5.9523 0.609583 -13.2634 -12.7378 -11.7765 -0.41721 -1.10164 -81.9834 -52.0029 90.7326 -27.8629 11.6855 -16.951 4.43698 19.661 -8.408 5.80452 -0.00104992 -3.1181 11.8703 -0.418575 4.13985 -10.3517 -1.26887 -2.39583 
-6.26129 96.8352 1.83338 110.213 -87.2833 109.768 -173.62 2.89781 91.3613 -13.011 8.68324 2.70521 65.9088 2.5944 -0.190551 29.3973 -0.34986 1.45953 175.11 2.30402 88.0545 -12.2425 -4.95898 -0.500112 65.5789 -2.68044 -0.882558 30.1737 -0.296859 0.921252 -0.236516 7.21658 -90.155 12.4401 -0.543597 -0.247318 0.769263 -0.553956 -0.223156 -21.7664 -0.444138 -0.399261 -1.75371 -0.444139 -0.399262 101.393 -51.6002 -83.3485 27.6145 -5.42574 -5.57159 0.694738 -12.9636 -12.8246 -11.3807 -0.395477 -1.18738 -81.9421 -51.7335 90.7743 -28.0379 11.7162 -16.6538 4.54272 19.5196 -8.7294 5.08392 0.0285835 -2.54475 11.8929 -0.583325 3.85221 -10.1204 -1.36463 -2.40911 
-6.27393 96.8428 1.77617 111.959 -87.1825 111.517 -173.589 2.81106 91.3809 -12.9687 9.0961 2.69643 65.6852 2.58052 0.1509 29.6485 -0.422009 1.43505 175.093 2.0551 88.0228 -11.9722 -4.49487 -0.527014 65.7877 -2.69712 -0.0111377 29.5948 -0.17629 0.544951 -0.221275 7.23906 -90.168 12.3951 -0.519496 -0.276275 0.724272 -0.531143 -0.253155 -21.8112 -0.412442 -0.419629 -1.79857 -0.412445 -0.419638 101.493 -51.4365 -83.1969 27.7603 -4.95732 -5.39027 0.581052 -13.2925 -12.3861 -11.1288 -0.374816 -1.31619 -82.0127 -51.9516 90.6852 -27.9934 11.7717 -16.4648 4.45722 19.682 -8.64235 4.93894 0.0288753 -2.50761 11.9037 -0.604465 3.9153 -9.89508 -1.41294 -2.27696 
-6.28898 96.8411 1.74042 111.327 -87.0815 110.842 -173.663 2.75539 91.3251 -12.8323 8.66593 2.74481 65.8958 2.6026 -0.174466 29.1694 -0.249561 1.16632 174.996 2.25729 87.97 -12.332 -4.80263 -0.420832 65.7343 -2.69009 -0.556721 29.7811 -0.237209 0.87326 -0.217739 7.25283 -90.1593 12.3676 -0.50832 -0.260329 0.696751 -0.519284 -0.237703 -21.8388 -0.406586 -0.401057 -1.82611 -0.406586 -0.401067 101.662 -51.4313 -82.9385 27.7381 -4.95194 -5.34917 0.828756 -13.453 -11.78 -11.4394 -0.402113 -1.14242 -81.9071 -52.0191 90.8466 -27.905 11.8198 -16.3674 4.39464 20.3396 -8.45714 4.64944 0.0170515 -2.61461 11.7477 -0.718038 3.95771 -9.20156 -1.52526 -2.62594 
-6.30508 96.8509 1.70374 111.504 -87.1475 111.125 -173.658 2.85599 91.4339 -12.9226 8.70364 2.8091 65.7296 2.50132 -0.408811 29.5876 -0.419558 1.58524 175.006 2.16693 88.0763 -11.9743 -5.18162 -0.345734 65.2183 -2.59386 -1.08152 30.3751 -0.326909 0.947466 -0.222194 7.25478 -90.1645 12.3637 -0.519601 -0.269342 0.69284 -0.530954 -0.246228 -21.8427 -0.414636 -0.413066 -1.83003 -0.414624 -0.413057 101.519 -51.4333 -83.1574 27.6805 -4.41117 -5.08182 0.418088 -15.1898 -11.6361 -10.0865 -0.422826 -0.318677 -81.7169 -52.2153 91.1417 -27.7682 11.6237 -16.1028 4.53799 21.3308 -8.44776 4.14044 0.0081867 -2.63497 11.5681 -0.652702 3.9487 -8.75766 -1.46159 -2.64961 
-6.32388 96.859 1.71422 113.18 -87.2253 112.532 -173.719 2.61133 91.172 -12.6094 8.85133 2.70284 65.5499 2.54521 0.151959 29.5926 -0.410214 1.48504 174.857 2.37846 87.7676 -12.5141 -4.9258 -0.363845 65.7411 -2.65067 -0.479844 29.9911 -0.26414 0.856846 -0.219257 7.29174 -90.1423 12.2899 -0.503169 -0.227414 0.619058 -0.512697 -0.205055 -21.9165 -0.411559 -0.368129 -1.90385 -0.41157 -0.368137 101.428 -51.2591 -83.2983 27.7747 -4.35753 -4.98942 0.395938 -14.9625 -11.6691 -10.1497 -0.404491 -0.569984 -81.75 -52.3263 91.1002 -27.6451 11.7369 -15.9274 4.31224 20.3739 -8.39089 4.71715 -0.0201104 -3.2357 11.8866 -0.696793 4.27257 -8.16741 -1.59188 -3.00782 
-6.33124 96.8511 1.70569 112.299 -87.2561 111.71 -173.687 2.66078 91.242 -12.596 8.66725 2.71233 65.6625 2.55178 -0.0729679 29.462 -0.366189 1.4368 174.857 2.37524 87.8188 -12.3966 -5.00492 -0.316779 65.7464 -2.7013 -0.456014 29.7287 -0.21172 0.710986 -0.203561 7.3124 -90.1409 12.2486 -0.471306 -0.228404 0.577712 -0.480909 -0.207435 -21.9578 -0.380877 -0.359486 -1.94512 -0.380879 -0.359492 101.488 -51.4235 -83.2041 27.6067 -4.59067 -5.1194 0.703033 -14.6862 -11.3885 -10.6125 -0.429768 -0.491595 -82.066 -52.1262 90.6187 -27.5414 12.1143 -15.9177 4.03076 20.3877 -8.18186 5.04198 -0.0426871 -3.62988 12.3466 -0.729069 4.07767 -8.27298 -1.60766 -2.58509 
-6.38306 96.8401 1.75385 107.977 -87.3192 107.448 -173.687 2.81234 91.3144 -12.5137 8.20375 2.74816 65.8507 2.52074 -0.601953 29.1445 -0.264226 1.36773 175.006 2.37742 87.991 -12.0486 -5.0484 -0.376863 65.6265 -2.7885 -0.952195 30.0723 -0.314948 1.23059 -0.188549 7.28317 -90.1535 12.307 -0.44748 -0.255928 0.636115 -0.458306 -0.235983 -21.8993 -0.349877 -0.378583 -1.88661 -0.349872 -0.378575 101.318 -51.6322 -83.4622 26.9883 -5.22776 -5.20329 1.09903 -15.7649 -10.8555 -10.5234 -0.443674 -0.290499 -82.7491 -52.8863 89.6714 -26.1106 13.0382 -16.237 3.02568 21.1888 -7.39119 5.38324 -0.00363205 -3.08973 12.4839 -0.763771 4.17995 -8.34466 -1.67554 -2.45109 
-6.409 96.8232 1.82967 103.514 -87.3236 103.127 -173.773 3.20335 91.3735 -12.9252 8.4718 2.87239 65.7106 2.47155 -0.273683 29.6197 -0.413991 1.44265 175.027 2.52281 88.1324 -12.0739 -4.98445 -0.282286 65.7072 -2.83164 -0.93525 29.8381 -0.228459 0.709494 -0.183178 7.25045 -90.1627 12.3724 -0.441261 -0.274793 0.701528 -0.452925 -0.255099 -21.8338 -0.338277 -0.394701 -1.82115 -0.338277 -0.394704 100.734 -52.0634 -84.3435 26.1043 -6.34087 -6.21219 2.21687 -17.3169 -9.19218 -10.9393 -0.422846 -0.71427 -84.6461 -54.9002 87.1198 -21.9981 14.5963 -17.8063 0.519727 23.677 -5.10034 5.02489 0.0146664 -2.74261 12.5642 -0.626862 4.19709 -8.22825 -1.55652 -2.33157 
-6.47376 96.8372 1.87745 103.515 -86.893 103.047 -173.747 3.02574 91.3962 -12.7497 8.8402 2.87025 65.7432 2.51269 -0.43059 29.396 -0.353614 1.5002 174.944 2.40804 88.0689 -12.1833 -4.45161 -0.252495 65.7787 -2.7324 -0.62063 29.8077 -0.260569 1.05426 -0.225302 7.24017 -90.1506 12.3931 -0.519232 -0.241635 0.722181 -0.529364 -0.218555 -21.8134 -0.422607 -0.38651 -1.80075 -0.422616 -0.386528 99.9443 -52.8835 -85.51 23.9469 -8.23701 -8.72466 4.3913 -19.9309 -6.20339 -10.2416 -0.337732 -1.39624 -86.7065 -56.5137 84.4013 -18.4372 15.3101 -21.3144 -3.08445 29.972 -0.921696 2.62223 -0.0373321 -3.05033 13.3942 -0.62477 4.37355 -9.75851 -1.5689 -2.88862 
-6.50738 96.8037 1.93963 103.641 -86.6209 103.099 -173.833 3.10164 91.3211 -13.0599 9.25393 2.92415 65.6616 2.48989 -0.130387 29.6918 -0.45165 1.59821 174.826 2.33236 88.0025 -12.2921 -4.43622 -0.166537 65.8681 -2.81696 -0.970647 29.8836 -0.276823 1.10981 -0.241643 7.21314 -90.15 12.447 -0.55143 -0.236275 0.776188 -0.561297 -0.211791 -21.7595 -0.454932 -0.391092 -1.74685 -0.454925 -0.391085 99.3159 -53.1205 -86.4425 22.873 -8.27352 -12.2227 6.46831 -23.7637 -2.41886 -10.2997 -0.467685 0.107074 -87.6771 -56.9606 83.1105 -17.2796 14.3387 -25.8343 -4.16948 33.849 0.0898883 1.03588 -0.0276357 -2.34494 12.9676 -0.576487 4.63156 -8.9697 -1.58646 -2.95612 
-6.55548 96.8059 1.85786 107.687 -87.0902 106.967 -173.735 2.7931 91.2326 -12.6079 8.66537 2.75625 65.541 2.49756 -0.0284599 29.6831 -0.39022 1.0361 174.882 2.43073 87.8877 -12.5052 -4.86236 -0.33084 66.2348 -3.02524 -0.743745 29.1537 -0.139743 0.773862 -0.176947 7.16681 -90.1264 12.5399 -0.411716 -0.204863 0.869026 -0.42033 -0.18654 -21.6664 -0.331107 -0.319118 -1.65371 -0.331114 -0.319128 98.6803 -53.5411 -87.3694 21.8854 -8.28445 -15.1733 7.68548 -25.6366 -0.742489 -11.2608 -0.582364 0.856129 -88.1636 -56.7876 82.4043 -16.6129 13.9494 -29.14 -4.10824 35.2147 -0.00720485 0.707737 -0.0534077 -2.94549 12.3926 -0.703942 5.00601 -8.58849 -1.78512 -3.06686 
